<?xml version="1.0" encoding="UTF-8" standalone="no"?>
<svg
   width="120"
   height="120"
   viewBox="0 0 120 120"
   fill="none"
   version="1.1"
   id="svg10"
   sodipodi:docname="bg.svg"
   inkscape:version="1.4.3 (0d15f75, 2025-12-25)"
   xmlns:inkscape="http://www.inkscape.org/namespaces/inkscape"
   xmlns:sodipodi="http://sodipodi.sourceforge.net/DTD/sodipodi-0.dtd"
   xmlns="http://www.w3.org/2000/svg"
   xmlns:svg="http://www.w3.org/2000/svg">
  <defs
     id="defs10" />
  <sodipodi:namedview
     id="namedview10"
     pagecolor="#ffffff"
     bordercolor="#000000"
     borderopacity="0.25"
     inkscape:showpageshadow="2"
     inkscape:pageopacity="0.0"
     inkscape:pagecheckerboard="0"
     inkscape:deskcolor="#d1d1d1"
     inkscape:zoom="1.6240458"
     inkscape:cx="25.86134"
     inkscape:cy="174.56404"
     inkscape:window-width="1920"
     inkscape:window-height="1111"
     inkscape:window-x="-9"
     inkscape:window-y="-9"
     inkscape:window-maximized="1"
     inkscape:current-layer="svg10" />
  <mask
     id="path-1-inside-1_2521_28313"
     fill="#ffffff">
    <path
       fill-rule="evenodd"
       clip-rule="evenodd"
       d="m 126.728,143.28 c 1.98,-1.979 5.189,-1.979 7.168,0 l 15.832,15.832 c 1.125,1.125 1.609,2.646 1.455,4.114 l 25.539,25.537 c 4.686,4.686 4.686,12.285 0,16.971 l -29.081,29.08 2.193,2.192 c 1.979,1.98 1.979,5.189 0,7.168 l -15.832,15.832 c -1.98,1.979 -5.189,1.979 -7.168,0 l -15.832,-15.832 c -1.979,-1.979 -1.979,-5.188 0,-7.168 l 2.534,-2.534 -28.7383,-28.738 c -4.6862,-4.686 -4.6861,-12.285 0,-16.971 l 24.7803,-24.78 c -0.44,-1.685 -0.001,-3.551 1.318,-4.871 z M 55.7567,84.7982 c 4.6862,-4.6862 12.2844,-4.686 16.9707,0 l 25.5371,25.5378 c 1.4677,-0.153 2.9895,0.331 4.1145,1.455 l 15.832,15.832 c 1.979,1.98 1.979,5.189 0,7.168 l -15.832,15.832 c -1.32,1.32 -3.187,1.759 -4.8713,1.319 l -24.7803,24.78 c -4.6862,4.686 -12.2844,4.686 -16.9707,0 l -28.7383,-28.738 -2.5341,2.534 c -1.9795,1.979 -5.1885,1.979 -7.168,0 L 1.48426,134.686 c -1.979056,-1.98 -1.978972,-5.189 0,-7.168 L 17.3163,111.686 c 1.9795,-1.979 5.1884,-1.979 7.168,0 l 2.1923,2.192 z M 188.763,84.7689 c 4.686,-4.686 12.284,-4.6862 16.97,0 l 29.08,29.0801 2.193,-2.192 c 1.979,-1.979 5.188,-1.979 7.168,0 l 15.832,15.832 c 1.979,1.979 1.979,5.188 0,7.168 l -15.832,15.832 c -1.98,1.978 -5.189,1.979 -7.168,0 l -2.534,-2.535 -28.739,28.739 c -4.686,4.686 -12.284,4.686 -16.97,0 l -24.781,-24.781 c -1.684,0.441 -3.551,0.002 -4.871,-1.318 l -15.832,-15.832 c -1.979,-1.979 -1.979,-5.188 0,-7.168 l 15.832,-15.832 c 1.125,-1.125 2.647,-1.609 4.114,-1.455 z M 129.661,0.0521317 c 1.527,-0.2202757 3.136,0.2575913 4.312,1.4326183 l 15.832,15.83205 c 0.494,0.4949 0.866,1.0666 1.113,1.6767 0.062,0.1524 0.116,0.3073 0.162,0.4639 0.093,0.3134 0.155,0.634 0.186,0.957 0.015,0.1617 0.023,0.3241 0.023,0.4864 0,0.162 -0.008,0.3239 -0.023,0.4853 -0.024,0.2426 -0.064,0.4838 -0.123,0.7217 -0.135,0.5542 -0.364,1.0903 -0.689,1.582 -0.046,0.0702 -0.094,0.1397 -0.145,0.208 -0.15,0.2052 -0.319,0.4014 -0.504,0.5869 l -2.193,2.1924 29.08,29.0801 c 1.172,1.1716 2.05,2.5252 2.636,3.9697 0.146,0.3611 0.275,0.7277 0.385,1.0987 0.165,0.5567 0.288,1.1232 0.37,1.6943 0.055,0.3805 0.092,0.7631 0.11,1.1465 0.064,1.3426 -0.096,2.6941 -0.48,3.9932 -0.275,0.9276 -0.664,1.8285 -1.167,2.6806 -0.101,0.1705 -0.207,0.3385 -0.317,0.5049 -0.164,0.2496 -0.339,0.495 -0.524,0.7344 -0.062,0.0798 -0.125,0.1587 -0.189,0.2373 -0.257,0.3141 -0.531,0.6183 -0.824,0.9111 L 151.154,98.265 c 0.131,1.2528 -0.204,2.544 -1.004,3.595 -0.078,0.103 -0.16,0.205 -0.248,0.303 -0.065,0.074 -0.133,0.146 -0.203,0.216 l -15.832,15.832 c -0.185,0.186 -0.382,0.354 -0.587,0.505 -0.547,0.402 -1.157,0.68 -1.79,0.834 -0.634,0.155 -1.291,0.186 -1.934,0.093 -0.161,-0.023 -0.321,-0.054 -0.48,-0.093 -0.158,-0.038 -0.315,-0.084 -0.47,-0.138 -0.077,-0.028 -0.154,-0.056 -0.23,-0.087 -0.229,-0.093 -0.452,-0.203 -0.668,-0.33 -0.144,-0.086 -0.285,-0.178 -0.422,-0.279 -0.205,-0.151 -0.401,-0.319 -0.587,-0.505 l -15.832,-15.832 c -0.165,-0.165 -0.317,-0.338 -0.454,-0.519 -0.206,-0.271 -0.381,-0.558 -0.525,-0.857 -0.193,-0.397 -0.33,-0.815 -0.413,-1.2409 -0.02,-0.1063 -0.038,-0.2131 -0.051,-0.3203 -0.028,-0.2149 -0.041,-0.4312 -0.041,-0.6475 0,-0.1081 0.004,-0.2162 0.01,-0.3242 0.014,-0.216 0.042,-0.4314 0.083,-0.6445 0.021,-0.1064 0.045,-0.2123 0.073,-0.3174 L 84.7684,72.7279 c -0.1463,-0.1463 -0.2885,-0.2954 -0.4257,-0.4473 -0.1374,-0.152 -0.2703,-0.3066 -0.3985,-0.4638 -0.128,-0.157 -0.2512,-0.3167 -0.3701,-0.4785 -0.9521,-1.2955 -1.6114,-2.739 -1.9775,-4.2393 -0.0457,-0.1873 -0.0865,-0.3756 -0.1231,-0.5644 -0.0732,-0.3782 -0.1284,-0.7592 -0.165,-1.1416 -0.055,-0.574 -0.0685,-1.1511 -0.041,-1.7266 0.0183,-0.3833 0.0545,-0.766 0.1093,-1.1465 0.055,-0.3808 0.1282,-0.7596 0.2198,-1.1348 0.0915,-0.3748 0.202,-0.7459 0.33,-1.1123 0.5126,-1.466 1.3176,-2.8526 2.4161,-4.0683 0.1372,-0.1519 0.2794,-0.3009 0.4257,-0.4473 l 28.7386,-28.7383 -2.534,-2.5342 c -0.186,-0.1855 -0.355,-0.3817 -0.505,-0.5869 -0.151,-0.205 -0.284,-0.4191 -0.4,-0.6396 -0.039,-0.0738 -0.075,-0.1484 -0.11,-0.2236 -0.07,-0.1499 -0.132,-0.3024 -0.186,-0.4571 -0.054,-0.1547 -0.101,-0.3114 -0.139,-0.4697 -0.136,-0.5546 -0.176,-1.1277 -0.121,-1.6934 0.007,-0.0805 0.016,-0.161 0.028,-0.2412 0.023,-0.1609 0.054,-0.321 0.093,-0.4795 0.019,-0.0792 0.041,-0.1579 0.064,-0.2363 0.116,-0.3919 0.28,-0.7729 0.492,-1.1328 0.213,-0.3599 0.474,-0.6986 0.784,-1.0078 L 126.805,1.48475 c 0.309,-0.30931 0.648,-0.570581 1.008,-0.783204 0.288,-0.169968 0.589,-0.308815 0.899,-0.416992 0.155,-0.054101 0.311,-0.100998 0.47,-0.139649 0.158,-0.038689 0.318,-0.0695724 0.479,-0.0927733 z"
       id="path1" />
  </mask>
  <mask
     id="path-3-inside-2_2521_28313"
     fill="#ffffff">
    <path
       d="m 224.241,132.981 c 0.971,-0.971 0.971,-2.546 0,-3.517 l -7.766,-7.765 c -0.971,-0.971 -2.545,-0.971 -3.516,0 l -0.561,0.56 -11.692,-11.692 c -2.089,-2.089 -5.476,-2.089 -7.565,0 l -11.999,12.001 -0.817,-0.818 c -0.971,-0.971 -2.547,-0.971 -3.518,0 l -7.765,7.766 c -0.971,0.971 -0.971,2.546 0,3.517 l 7.765,7.765 c 0.971,0.971 2.547,0.971 3.518,0 l 1.036,-1.035 11.78,11.78 c 2.089,2.089 5.476,2.089 7.565,0 l 11.525,-11.524 0.728,0.728 c 0.971,0.971 2.545,0.971 3.516,0 z"
       id="path3" />
  </mask>
  <mask
     id="path-5-inside-3_2521_28313"
     fill="#ffffff">
    <path
       d="m 38.7285,133.306 c -0.9711,-0.971 -0.9711,-2.546 0,-3.517 l 7.7656,-7.766 c 0.9711,-0.971 2.5456,-0.971 3.5166,0 l 0.5606,0.561 11.6924,-11.692 c 2.0889,-2.089 5.4756,-2.089 7.5644,0 l 11.999,12.001 0.8174,-0.818 c 0.9711,-0.971 2.5465,-0.971 3.5176,0 l 7.7656,7.766 c 0.971,0.971 0.971,2.545 0,3.516 l -7.7656,7.766 c -0.9711,0.971 -2.5465,0.971 -3.5176,0 l -1.0361,-1.035 -11.7803,11.78 c -2.0888,2.089 -5.4755,2.089 -7.5644,0 l -11.5254,-11.524 -0.7276,0.727 c -0.971,0.971 -2.5455,0.971 -3.5166,0 z"
       id="path5" />
  </mask>
  <mask
     id="path-7-inside-4_2521_28313"
     fill="#ffffff">
    <path
       d="m 133.248,38.4614 c -0.971,-0.9711 -2.545,-0.9711 -3.516,0 l -7.766,7.7657 c -0.971,0.971 -0.971,2.5455 0,3.5166 l 0.561,0.5605 -11.693,11.6924 c -2.088,2.089 -2.089,5.4756 0,7.5644 l 12.001,11.9991 -0.817,0.8173 c -0.971,0.9711 -0.971,2.5465 0,3.5176 l 7.765,7.7656 c 0.972,0.971 2.546,0.971 3.517,0 l 7.766,-7.7656 c 0.971,-0.9711 0.971,-2.5465 0,-3.5176 l -1.035,-1.0361 11.78,-11.7803 c 2.088,-2.0888 2.088,-5.4755 0,-7.5644 l -11.525,-11.5254 0.728,-0.7275 c 0.971,-0.9711 0.971,-2.5456 0,-3.5166 z"
       id="path7" />
  </mask>
  <mask
     id="path-9-inside-5_2521_28313"
     fill="#ffffff">
    <path
       d="m 133.573,223.974 c -0.971,0.971 -2.546,0.971 -3.517,0 l -7.765,-7.766 c -0.971,-0.971 -0.971,-2.546 0,-3.517 l 0.56,-0.56 -11.692,-11.693 c -2.089,-2.088 -2.089,-5.475 0,-7.564 l 12.001,-11.999 -0.817,-0.817 c -0.972,-0.971 -0.972,-2.547 0,-3.518 l 7.765,-7.766 c 0.971,-0.971 2.546,-0.971 3.517,0 l 7.765,7.766 c 0.971,0.971 0.971,2.547 0,3.518 l -1.035,1.036 11.78,11.78 c 2.089,2.089 2.089,5.476 0,7.564 l -11.524,11.526 0.728,0.727 c 0.971,0.971 0.971,2.546 0,3.517 z"
       id="path9" />
  </mask>
  <g
     id="g10"
     transform="matrix(0.5,0,0,0.5,30,30.000001)"
     style="opacity:0.2">
    <path
       d="m 126.728,143.28 -2.121,-2.122 v 0 z m 7.168,0 2.122,-2.122 h -0.001 z m 15.832,15.832 2.122,-2.121 v -0.001 z m 1.455,4.114 -2.983,-0.312 c -0.094,0.9 0.223,1.794 0.862,2.433 z m 25.539,25.537 2.121,-2.121 v 0 z m 0,16.971 2.121,2.121 z m -29.081,29.08 -2.121,-2.121 c -1.171,1.171 -1.171,3.071 0,4.242 z m 2.193,2.192 2.121,-2.121 v 0 z m 0,7.168 2.121,2.122 v -0.001 z m -15.832,15.832 2.121,2.122 v 0 z m -7.168,0 -2.121,2.122 v 0 z m -15.832,-15.832 -2.122,2.121 0.001,0.001 z m 0,-7.168 -2.121,-2.121 h -0.001 z m 2.534,-2.534 2.121,2.121 c 1.172,-1.171 1.172,-3.071 0,-4.242 z m -28.7383,-28.738 2.1214,-2.122 z m 0,-16.971 -2.1213,-2.121 v 0 z m 24.7803,-24.78 2.121,2.121 c 0.754,-0.753 1.051,-1.85 0.781,-2.88 z m 1.318,-4.871 -2.121,-2.122 v 0.001 z M 55.7567,84.7982 53.6354,82.6769 Z m 16.9707,0 2.1214,-2.1213 -1e-4,-1e-4 z m 25.5371,25.5378 -2.1213,2.122 c 0.6396,0.639 1.5337,0.956 2.4334,0.862 z m 4.1145,1.455 2.121,-2.121 v 0 z m 15.832,15.832 2.121,-2.121 v 0 z m 0,7.168 2.121,2.122 v -0.001 z m -15.832,15.832 2.121,2.122 v 0 z m -4.8713,1.319 0.7589,-2.903 c -1.0307,-0.269 -2.1269,0.028 -2.8802,0.781 z m -24.7803,24.78 2.1213,2.121 v 0 z m -16.9707,0 -2.1213,2.121 v 0 z m -28.7383,-28.738 2.1214,-2.122 c -1.1716,-1.171 -3.0711,-1.171 -4.2427,0 z m -2.5341,2.534 2.121,2.122 3e-4,-10e-4 z m -7.168,0 -2.1213,2.121 3e-4,10e-4 z m -15.83204,-15.832 -2.121546,2.121 h 2.27e-4 z m 0,-7.168 -2.121319,-2.121 h -3e-4 z m 15.83204,-15.832 -2.1211,-2.122 -2e-4,0.001 z m 7.168,0 2.1213,-2.121 -2e-4,-0.001 z m 2.1923,2.192 -2.1213,2.122 c 1.1716,1.171 3.0711,1.171 4.2427,0 z M 188.763,84.7689 186.641,82.6476 v 1e-4 z m 46.05,29.0801 -2.121,2.121 c 1.172,1.172 3.071,1.172 4.243,0 z m 2.193,-2.192 -2.121,-2.122 h -0.001 z m 7.168,0 2.121,-2.122 v 0 z m 15.832,15.832 2.121,-2.121 v -10e-4 z m 0,7.168 2.121,2.121 v 0 z m -15.832,15.832 2.121,2.121 v 0 z m -7.168,0 -2.122,2.121 h 0.001 z m -2.534,-2.535 2.121,-2.121 c -1.172,-1.171 -3.071,-1.171 -4.243,0 z m -28.739,28.739 2.122,2.121 v 0 z m -16.97,0 -2.122,2.121 v 0 z m -24.781,-24.781 2.122,-2.121 c -0.754,-0.753 -1.85,-1.05 -2.881,-0.781 z m -4.871,-1.318 -2.121,2.121 v 0.001 z m -15.832,-15.832 -2.121,2.121 v 0 z m 0,-7.168 -2.121,-2.121 v 0 z m 15.832,-15.832 -2.121,-2.121 v 0 z m 4.114,-1.455 -0.312,2.984 c 0.9,0.094 1.794,-0.223 2.434,-0.863 z M 129.661,0.0521317 130.089,3.02142 v -1e-5 z m 4.312,1.4326183 2.121,-2.121322 v -2.53e-4 z m 15.832,15.83205 2.121,-2.121 v -3e-4 z m 1.113,1.6767 -2.78,1.1271 v 10e-5 z m 0.162,0.4639 2.877,-0.8514 v -1e-4 z m 0.186,0.957 -2.987,0.286 v 2e-4 z m 0.023,0.4864 3,10e-5 v -10e-5 z m -0.023,0.4853 -2.987,-0.2857 v 10e-5 z m -0.123,0.7217 2.915,0.7117 v -2e-4 z m -0.689,1.582 -2.504,-1.653 v 2e-4 z m -0.145,0.208 2.418,1.7765 v -2e-4 z m -0.504,0.5869 2.121,2.1214 v -3e-4 z m -2.193,2.1924 -2.121,-2.1213 c -1.172,1.1716 -1.172,3.0711 0,4.2427 z m 29.08,29.0801 2.122,-2.1213 v 0 z m 2.636,3.9697 -2.78,1.1273 v 1e-4 z m 0.385,1.0987 2.876,-0.8514 v -1e-4 z m 0.37,1.6943 -2.969,0.4282 v 1e-4 z m 0.11,1.1465 2.997,-0.1431 v 0 z m -0.48,3.9932 -2.877,-0.8516 v 10e-5 z m -1.167,2.6806 2.583,1.5258 v 0 z m -0.317,0.5049 -2.503,-1.653 v 1e-4 z m -0.524,0.7344 2.372,1.8369 v -10e-5 z m -0.189,0.2373 -2.325,-1.8962 v 0 z m -0.824,0.9111 2.122,2.1214 v -1e-4 z m -25.538,25.5371 -2.121,-2.1213 c -0.64,0.6396 -0.957,1.5336 -0.863,2.4333 z m -1.004,3.595 -2.387,-1.817 v 0 z m -0.248,0.303 2.24,1.996 v 0 z m -0.203,0.216 2.121,2.122 0.001,-0.001 z m -15.832,15.832 2.121,2.122 v 0 z m -0.587,0.505 1.776,2.418 h 10e-4 z m -1.79,0.834 -0.711,-2.914 v 0 z m -1.934,0.093 -0.429,2.969 v 0 z m -0.48,-0.093 0.712,-2.914 v 0 z m -0.47,-0.138 -0.99,2.831 v 0 z m -0.23,-0.087 -1.127,2.78 v 0 z m -0.668,-0.33 1.525,-2.584 v 0 z m -0.422,-0.279 -1.776,2.418 v 0 z m -0.587,-0.505 -2.121,2.122 v 0 z m -15.832,-15.832 -2.122,2.121 10e-4,0.001 z m -0.454,-0.519 2.388,-1.816 v -10e-4 z m -0.525,-0.857 -2.701,1.307 v 0 z m -0.413,-1.2409 2.946,-0.5689 v -2e-4 z m -0.051,-0.3203 -2.976,0.3799 v 10e-5 z m -0.041,-0.6475 3,10e-4 v -1e-4 z m 0.01,-0.3242 -2.993,-0.1917 v 2e-4 z m 0.083,-0.6445 2.946,0.5714 v -2e-4 z m 0.073,-0.3174 2.902,0.7588 c 0.27,-1.0306 -0.028,-2.1269 -0.781,-2.8801 z M 84.7684,72.7279 82.6471,74.8492 v 0 z m -0.4257,-0.4473 -2.226,2.0113 v 0 z m -0.3985,-0.4638 2.3248,-1.8961 v -1e-4 z m -0.3701,-0.4785 -2.4173,1.7766 v 0 z M 81.5966,67.099 84.511,66.3878 v -1e-4 z m -0.1231,-0.5644 -2.9453,0.5702 v 1e-4 z m -0.165,-1.1416 2.9863,-0.286 v 0 z m -0.041,-1.7266 -2.9966,-0.1431 v 0 z m 0.1093,-1.1465 2.9693,0.4283 v -1e-4 z m 0.2198,-1.1348 -2.9145,-0.7114 v 1e-4 z m 0.33,-1.1123 2.8319,0.9902 1e-4,-10e-5 z m 2.4161,-4.0683 -2.226,-2.0113 v 1e-4 z m 0.4257,-0.4473 2.1214,2.1213 z m 28.7386,-28.7383 2.121,2.1213 c 1.172,-1.1715 1.172,-3.071 0,-4.2426 z m -2.534,-2.5342 -2.122,2.1211 v 3e-4 z m -0.505,-0.5869 -2.418,1.7764 v 0 z m -0.4,-0.6396 2.656,-1.3957 v 0 z m -0.11,-0.2236 -2.722,1.2622 v 10e-5 z m -0.186,-0.4571 2.832,-0.9901 v -10e-5 z m -0.139,-0.4697 -2.915,0.7114 v 10e-5 z m -0.121,-1.6934 2.986,0.2862 v -2e-4 z m 0.028,-0.2412 -2.969,-0.4282 v 2e-4 z m 0.093,-0.4795 2.914,0.7114 v -10e-5 z m 0.064,-0.2363 -2.876,-0.8515 -0.001,1e-4 z m 0.492,-1.1328 2.583,1.5258 v -10e-5 z m 0.784,-1.0078 -2.122,-2.1213 v 3e-4 z m 15.832,-15.83205 -2.122,-2.121549 v 2.27e-4 z m 1.008,-0.783204 -1.525,-2.583256 v 6e-5 z m 0.899,-0.416992 0.99,2.831926 v -3e-5 z m 0.47,-0.139649 -0.712,-2.914445 v 2e-5 z M 126.728,143.28 l 2.122,2.121 c 0.807,-0.808 2.117,-0.808 2.925,0 l 2.121,-2.121 2.121,-2.122 c -3.151,-3.15 -8.259,-3.15 -11.41,0 z m 7.168,0 -2.121,2.121 15.832,15.832 2.121,-2.121 2.122,-2.122 -15.832,-15.832 z m 15.832,15.832 -2.121,2.121 c 0.457,0.457 0.656,1.072 0.593,1.681 l 2.983,0.312 2.984,0.312 c 0.244,-2.326 -0.525,-4.754 -2.317,-6.547 z m 1.455,4.114 -2.121,2.121 25.538,25.537 2.122,-2.121 2.121,-2.121 -25.538,-25.537 z m 25.539,25.537 -2.122,2.121 c 3.515,3.515 3.515,9.214 0,12.728 l 2.122,2.122 2.121,2.121 c 5.858,-5.858 5.857,-15.355 0,-21.213 z m 0,16.971 -2.122,-2.122 -29.08,29.081 2.121,2.121 2.122,2.121 29.08,-29.08 z m -29.081,29.08 -2.121,2.121 2.193,2.193 2.121,-2.122 2.121,-2.121 -2.192,-2.192 z m 2.193,2.192 -2.122,2.121 c 0.808,0.808 0.808,2.118 0,2.926 l 2.122,2.121 2.121,2.121 c 3.151,-3.151 3.151,-8.259 0,-11.41 z m 0,7.168 -2.121,-2.121 -15.832,15.832 2.121,2.121 2.121,2.122 15.832,-15.832 z m -15.832,15.832 -2.121,-2.121 c -0.808,0.807 -2.118,0.807 -2.926,0 l -2.121,2.121 -2.121,2.122 c 3.151,3.15 8.259,3.15 11.41,0 z m -7.168,0 2.121,-2.121 -15.832,-15.832 -2.121,2.121 -2.121,2.122 15.832,15.832 z m -15.832,-15.832 2.121,-2.121 c -0.807,-0.808 -0.807,-2.118 0,-2.926 l -2.121,-2.121 -2.122,-2.121 c -3.15,3.151 -3.15,8.259 0,11.41 z m 0,-7.168 2.121,2.122 2.534,-2.535 -2.121,-2.121 -2.121,-2.121 -2.534,2.534 z m 2.534,-2.534 2.121,-2.121 -28.7379,-28.739 -2.1214,2.122 -2.1213,2.121 28.7386,28.738 z m -28.7383,-28.738 2.1214,-2.122 c -3.5147,-3.514 -3.5147,-9.213 0,-12.728 l -2.1214,-2.121 -2.1213,-2.121 c -5.8577,5.858 -5.8578,15.355 0,21.213 z m 0,-16.971 2.1214,2.121 24.7799,-24.78 -2.121,-2.121 -2.121,-2.122 -24.7806,24.781 z m 24.7803,-24.78 2.902,-0.759 c -0.182,-0.697 0.002,-1.456 0.538,-1.991 l -2.122,-2.121 -2.121,-2.121 c -2.104,2.104 -2.798,5.079 -2.099,7.751 z m 1.318,-4.871 2.122,2.121 15.832,-15.832 -2.122,-2.121 -2.121,-2.122 -15.832,15.832 z M 55.7567,84.7982 57.878,86.9195 c 3.5146,-3.5145 9.2134,-3.5145 12.7282,1e-4 l 2.1212,-2.1214 2.1213,-2.1214 c -5.8578,-5.8574 -15.3555,-5.8577 -21.2133,1e-4 z m 16.9707,0 -2.1213,2.1213 25.5371,25.5385 2.1213,-2.122 2.1215,-2.121 -25.5372,-25.5381 z m 25.5371,25.5378 0.3121,2.984 c 0.6089,-0.064 1.2243,0.136 1.6814,0.593 l 2.121,-2.122 2.121,-2.121 c -1.793,-1.793 -4.221,-2.561 -6.5476,-2.317 z m 4.1145,1.455 -2.122,2.122 15.833,15.832 2.121,-2.122 2.121,-2.121 L 104.5,109.67 Z m 15.832,15.832 -2.122,2.121 c 0.808,0.809 0.808,2.119 0,2.926 l 2.122,2.121 2.121,2.121 c 3.151,-3.151 3.15,-8.259 0,-11.41 z m 0,7.168 -2.121,-2.121 -15.833,15.832 2.122,2.121 2.121,2.122 15.832,-15.832 z m -15.832,15.832 -2.121,-2.121 c -0.5359,0.535 -1.2944,0.72 -1.9914,0.537 l -0.7589,2.903 -0.7589,2.902 c 2.6716,0.699 5.6462,0.005 7.7512,-2.099 z m -4.8713,1.319 -2.1213,-2.122 -24.7803,24.781 2.1213,2.121 2.1213,2.121 24.7803,-24.78 z m -24.7803,24.78 -2.1213,-2.121 c -3.5146,3.514 -9.2134,3.514 -12.7281,0 l -2.1213,2.121 -2.1213,2.121 c 5.8579,5.858 15.3555,5.858 21.2133,0 z m -16.9707,0 2.1213,-2.121 -28.7382,-28.739 -2.1214,2.122 -2.1213,2.121 28.7383,28.738 z m -28.7383,-28.738 -2.1213,-2.122 -2.5342,2.535 2.1214,2.121 2.1213,2.121 2.5342,-2.534 z m -2.5341,2.534 -2.1211,-2.122 c -0.8078,0.808 -2.1179,0.808 -2.926,0 l -2.1209,2.122 -2.121,2.122 c 3.151,3.149 8.259,3.15 11.41,0 z m -7.168,0 2.1213,-2.121 -15.83202,-15.832 -2.12132,2.121 -2.121319,2.121 L 15.195,152.639 Z M 1.48426,134.686 3.60581,132.565 c -0.80772,-0.808 -0.8078,-2.118 7e-5,-2.926 l -2.12162,-2.121 -2.121619,-2.121 c -3.150071,3.151 -3.150331,8.259 7.3e-5,11.41 z m 0,-7.168 2.12132,2.121 15.83202,-15.832 -2.1213,-2.121 -2.1213,-2.121 -15.832059,15.832 z m 15.83204,-15.832 2.1211,2.121 c 0.808,-0.807 2.1178,-0.807 2.9258,0 l 2.1211,-2.121 2.1211,-2.122 c -3.1511,-3.15 -8.2592,-3.15 -11.4102,0 z m 7.168,0 -2.1214,2.121 2.1924,2.193 2.1213,-2.122 2.1214,-2.121 -2.1924,-2.192 z m 2.1923,2.192 L 28.798,116 57.878,86.9195 55.7567,84.7982 53.6354,82.6769 24.5553,111.757 Z m 162.0864,-29.1091 2.121,2.1214 c 3.515,-3.5146 9.213,-3.5146 12.728,0 l 2.121,-2.1214 2.122,-2.1213 c -5.858,-5.8578 -15.356,-5.8575 -21.214,0 z m 16.97,0 -2.121,2.1214 29.08,29.0797 2.121,-2.121 2.122,-2.121 -29.08,-29.0804 z m 29.08,29.0801 2.122,2.121 2.192,-2.192 -2.121,-2.121 -2.122,-2.122 -2.192,2.193 z m 2.193,-2.192 2.121,2.121 c 0.808,-0.808 2.118,-0.808 2.926,0 l 2.121,-2.121 2.121,-2.122 c -3.151,-3.15 -8.259,-3.15 -11.41,0 z m 7.168,0 -2.122,2.121 15.832,15.832 2.122,-2.121 2.121,-2.122 -15.832,-15.832 z m 15.832,15.832 -2.122,2.121 c 0.808,0.808 0.808,2.118 0,2.926 l 2.122,2.121 2.121,2.121 c 3.151,-3.151 3.15,-8.259 0,-11.41 z m 0,7.168 -2.122,-2.122 -15.832,15.832 2.122,2.122 2.121,2.121 15.832,-15.832 z m -15.832,15.832 -2.121,-2.122 c -0.808,0.808 -2.118,0.808 -2.926,0 l -2.121,2.122 -2.121,2.121 c 3.151,3.15 8.259,3.15 11.41,0 z m -7.168,0 2.121,-2.122 -2.534,-2.534 -2.121,2.121 -2.122,2.122 2.534,2.534 z m -2.534,-2.535 -2.122,-2.121 -28.738,28.738 2.121,2.122 2.122,2.121 28.738,-28.738 z m -28.739,28.739 -2.121,-2.122 c -3.515,3.515 -9.213,3.515 -12.728,0 l -2.121,2.122 -2.122,2.121 c 5.858,5.858 15.356,5.858 21.214,0 z m -16.97,0 2.121,-2.122 -24.78,-24.78 -2.122,2.121 -2.121,2.122 24.78,24.78 z m -24.781,-24.781 -0.759,-2.902 c -0.697,0.182 -1.455,-0.002 -1.991,-0.538 l -2.121,2.122 -2.121,2.122 c 2.105,2.103 5.08,2.798 7.751,2.099 z m -4.871,-1.318 2.122,-2.121 -15.833,-15.832 -2.121,2.121 -2.121,2.121 15.832,15.832 z m -15.832,-15.832 2.122,-2.121 c -0.808,-0.808 -0.808,-2.118 0,-2.926 l -2.122,-2.121 -2.121,-2.121 c -3.15,3.151 -3.151,8.259 0,11.41 z m 0,-7.168 2.121,2.121 15.833,-15.832 -2.122,-2.121 -2.121,-2.121 -15.832,15.832 z m 15.832,-15.832 2.121,2.122 c 0.457,-0.457 1.072,-0.657 1.681,-0.593 l 0.312,-2.984 0.313,-2.984 c -2.327,-0.243 -4.755,0.525 -6.548,2.318 z m 4.114,-1.455 2.122,2.121 25.537,-25.5378 -2.121,-2.1213 -2.122,-2.1212 -25.537,25.5383 z M 129.661,0.0521317 130.089,3.02141 c 0.631,-0.09103 1.284,0.10623 1.762,0.58491 l 2.122,-2.12157 2.121,-2.121575 C 134.222,-2.5082 131.656,-3.26667 129.233,-2.91715 Z m 4.312,1.4326183 -2.122,2.12132 15.832,15.83203 2.122,-2.1213 2.121,-2.1213 -15.832,-15.832072 z m 15.832,15.83205 -2.122,2.121 c 0.206,0.2062 0.355,0.4383 0.455,0.6828 l 2.78,-1.1271 2.78,-1.1271 c -0.396,-0.9758 -0.988,-1.887 -1.772,-2.6706 z m 1.113,1.6767 -2.78,1.1272 c 0.024,0.0603 0.046,0.1231 0.065,0.1882 l 2.877,-0.8515 2.877,-0.8515 c -0.074,-0.2481 -0.16,-0.495 -0.259,-0.7396 z m 0.162,0.4639 -2.877,0.8514 c 0.038,0.1276 0.063,0.2588 0.076,0.3916 l 2.987,-0.286 2.986,-0.286 c -0.049,-0.5132 -0.148,-1.0231 -0.295,-1.5224 z m 0.186,0.957 -2.987,0.2862 c 0.007,0.0689 0.01,0.1357 0.01,0.2001 l 3,10e-5 h 3 c 0,-0.2602 -0.013,-0.518 -0.037,-0.7725 z m 0.023,0.4864 -3,-2e-4 c 0,0.0635 -0.003,0.1301 -0.01,0.1998 l 2.987,0.2857 2.986,0.2857 c 0.024,-0.2531 0.037,-0.5104 0.037,-0.7709 z m -0.023,0.4853 -2.987,-0.2856 c -0.009,0.0985 -0.026,0.1973 -0.05,0.2957 l 2.914,0.7116 2.915,0.7115 c 0.092,-0.3773 0.157,-0.7608 0.194,-1.1476 z m -0.123,0.7217 -2.914,-0.7117 c -0.056,0.228 -0.149,0.4443 -0.279,0.6407 l 2.504,1.653 2.504,1.653 c 0.519,-0.787 0.885,-1.6428 1.1,-2.5233 z m -0.689,1.582 -2.504,-1.6528 c -0.023,0.0354 -0.042,0.063 -0.058,0.0845 l 2.417,1.7763 2.418,1.7763 c 0.085,-0.115 0.161,-0.2265 0.231,-0.3314 z m -0.145,0.208 -2.417,-1.7764 c -0.059,0.0804 -0.128,0.1617 -0.209,0.2423 l 2.122,2.121 2.121,2.1211 c 0.291,-0.2905 0.559,-0.6017 0.801,-0.9315 z m -0.504,0.5869 -2.122,-2.1213 -2.192,2.1924 2.121,2.1213 2.122,2.1214 2.192,-2.1924 z m -2.193,2.1924 -2.121,2.1214 29.08,29.08 2.121,-2.1213 2.122,-2.1213 -29.08,-29.0801 z m 29.08,29.0801 -2.121,2.1213 c 0.882,0.8824 1.539,1.8963 1.977,2.9757 l 2.78,-1.1273 2.78,-1.1272 c -0.734,-1.8098 -1.834,-3.5031 -3.294,-4.9638 z m 2.636,3.9697 -2.78,1.1274 c 0.11,0.2724 0.207,0.547 0.288,0.8227 l 2.877,-0.8514 2.876,-0.8515 c -0.138,-0.4662 -0.299,-0.9249 -0.481,-1.3745 z m 0.385,1.0987 -2.877,0.8514 c 0.123,0.4152 0.215,0.8401 0.278,1.2711 l 2.969,-0.4282 2.969,-0.4282 c -0.102,-0.7113 -0.256,-1.4193 -0.463,-2.1175 z m 0.37,1.6943 -2.969,0.4283 c 0.041,0.2887 0.069,0.5761 0.083,0.8613 l 2.996,-0.1431 2.997,-0.1431 c -0.023,-0.4815 -0.07,-0.9593 -0.138,-1.4317 z m 0.11,1.1465 -2.996,0.143 c 0.048,1.0099 -0.073,2.025 -0.361,2.9986 l 2.877,0.8516 2.876,0.8515 c 0.481,-1.6246 0.681,-3.3124 0.601,-4.9878 z m -0.48,3.9932 -2.877,-0.8515 c -0.206,0.6947 -0.497,1.3689 -0.873,2.0063 l 2.583,1.5258 2.583,1.5258 c 0.63,-1.0668 1.117,-2.1945 1.46,-3.355 z m -1.167,2.6806 -2.583,-1.5258 c -0.072,0.1213 -0.151,0.2467 -0.237,0.3777 l 2.503,1.653 2.504,1.653 c 0.133,-0.2017 0.266,-0.4125 0.396,-0.6321 z m -0.317,0.5049 -2.503,-1.6529 c -0.127,0.1927 -0.258,0.3762 -0.393,0.5504 l 2.372,1.8369 2.372,1.8368 c 0.236,-0.3045 0.454,-0.6119 0.656,-0.9183 z m -0.524,0.7344 -2.372,-1.8369 c -0.039,0.051 -0.085,0.1078 -0.142,0.178 l 2.325,1.8962 2.324,1.8962 c 0.071,-0.087 0.153,-0.188 0.237,-0.2966 z m -0.189,0.2373 -2.325,-1.8962 c -0.193,0.2366 -0.4,0.4657 -0.62,0.6861 l 2.121,2.1212 2.122,2.1213 c 0.365,-0.3652 0.707,-0.7447 1.026,-1.1363 z m -0.824,0.9111 -2.121,-2.1213 -25.538,25.5371 2.121,2.1213 2.121,2.121 25.539,-25.5367 z m -25.538,25.5371 -2.984,0.312 c 0.055,0.5176 -0.084,1.042 -0.407,1.466 l 2.387,1.817 2.388,1.817 c 1.277,-1.679 1.808,-3.7361 1.6,-5.724 z m -1.004,3.595 -2.387,-1.817 c -0.049,0.064 -0.08,0.102 -0.101,0.125 l 2.24,1.995 2.24,1.996 c 0.155,-0.174 0.287,-0.34 0.396,-0.483 z m -0.248,0.303 -2.24,-1.995 c -0.033,0.037 -0.061,0.067 -0.084,0.09 l 2.121,2.121 2.122,2.121 c 0.117,-0.117 0.224,-0.232 0.321,-0.341 z m -0.203,0.216 -2.121,-2.121 -15.832,15.832 2.121,2.121 2.121,2.122 15.832,-15.832 z m -15.832,15.832 -2.121,-2.121 c -0.081,0.08 -0.162,0.15 -0.242,0.209 l 1.776,2.417 1.777,2.418 c 0.33,-0.243 0.641,-0.511 0.931,-0.801 z m -0.587,0.505 -1.776,-2.417 c -0.219,0.161 -0.465,0.273 -0.725,0.337 l 0.711,2.914 0.712,2.915 c 1.006,-0.246 1.98,-0.688 2.854,-1.331 z m -1.79,0.834 -0.711,-2.914 c -0.259,0.063 -0.53,0.076 -0.795,0.038 l -0.428,2.969 -0.429,2.969 c 1.022,0.148 2.066,0.099 3.075,-0.147 z m -1.934,0.093 0.428,-2.969 c -0.067,-0.01 -0.133,-0.023 -0.196,-0.038 l -0.712,2.914 -0.711,2.915 c 0.253,0.061 0.508,0.11 0.762,0.147 z m -0.48,-0.093 0.712,-2.914 c -0.07,-0.017 -0.133,-0.036 -0.192,-0.056 l -0.99,2.832 -0.99,2.831 c 0.251,0.088 0.501,0.161 0.749,0.222 z m -0.47,-0.138 0.99,-2.832 c -0.032,-0.012 -0.063,-0.023 -0.093,-0.036 l -1.127,2.781 -1.127,2.78 c 0.122,0.049 0.245,0.096 0.367,0.138 z m -0.23,-0.087 1.127,-2.781 c -0.094,-0.038 -0.184,-0.082 -0.27,-0.133 l -1.525,2.584 -1.525,2.583 c 0.346,0.204 0.703,0.38 1.066,0.527 z m -0.668,-0.33 1.525,-2.584 c -0.06,-0.035 -0.117,-0.073 -0.171,-0.112 l -1.776,2.417 -1.776,2.418 c 0.22,0.161 0.445,0.309 0.673,0.444 z m -0.422,-0.279 1.776,-2.417 c -0.08,-0.059 -0.161,-0.129 -0.242,-0.209 l -2.121,2.121 -2.121,2.122 c 0.291,0.29 0.602,0.558 0.932,0.801 z m -0.587,-0.505 2.121,-2.121 -15.832,-15.832 -2.121,2.121 -2.121,2.122 15.832,15.832 z m -15.832,-15.832 2.122,-2.121 c -0.071,-0.07 -0.133,-0.142 -0.188,-0.214 l -2.388,1.816 -2.388,1.816 c 0.22,0.289 0.461,0.565 0.72,0.824 z m -0.454,-0.519 2.388,-1.817 c -0.083,-0.1085 -0.154,-0.2244 -0.213,-0.346 l -2.7,1.306 -2.701,1.307 c 0.23,0.474 0.509,0.933 0.838,1.366 z m -0.525,-0.857 2.7,-1.3059 c -0.078,-0.1611 -0.133,-0.3305 -0.167,-0.5039 l -2.946,0.5689 -2.945,0.5689 c 0.131,0.679 0.35,1.344 0.657,1.979 z m -0.413,-1.2409 2.946,-0.5691 c -0.01,-0.0512 -0.017,-0.0946 -0.021,-0.1313 l -2.976,0.3801 -2.976,0.38 c 0.023,0.1778 0.051,0.3482 0.082,0.5092 z m -0.051,-0.3203 2.976,-0.3799 c -0.012,-0.0881 -0.017,-0.1772 -0.017,-0.2666 l -3,-10e-4 -3,-0.001 c 0,0.3432 0.021,0.6868 0.065,1.0284 z m -0.041,-0.6475 3,9e-4 c 0,-0.0385 0.001,-0.0828 0.004,-0.1336 l -2.994,-0.1915 -2.993,-0.1915 c -0.011,0.1651 -0.017,0.3371 -0.017,0.5148 z m 0.01,-0.3242 2.994,0.1917 c 0.006,-0.087 0.017,-0.1755 0.035,-0.2648 l -2.946,-0.5714 -2.945,-0.5714 c -0.065,0.337 -0.109,0.6791 -0.131,1.0242 z m 0.083,-0.6445 2.946,0.5712 c 0.008,-0.0422 0.018,-0.0855 0.029,-0.1298 l -2.902,-0.7588 -2.903,-0.7589 c -0.043,0.1661 -0.082,0.3345 -0.115,0.505 z m 0.073,-0.3174 2.121,-2.1213 -24.7802,-24.7803 -2.1214,2.1213 -2.1213,2.1213 24.7799,24.7803 z M 84.7684,72.7279 86.8898,70.6066 c -0.1134,-0.1134 -0.2205,-0.2258 -0.3212,-0.3372 l -2.2259,2.0112 -2.226,2.0113 c 0.1738,0.1923 0.3511,0.3781 0.5304,0.5573 z m -0.4257,-0.4473 2.2259,-2.0112 C 86.4646,70.1542 86.3647,70.038 86.269,69.9207 l -2.3248,1.8961 -2.3248,1.8961 c 0.1608,0.1971 0.3266,0.3901 0.4973,0.579 z m -0.3985,-0.4638 2.3248,-1.8962 c -0.0936,-0.1148 -0.186,-0.2344 -0.2776,-0.359 l -2.4173,1.7767 -2.4173,1.7766 c 0.1462,0.199 0.3002,0.3989 0.4626,0.598 z m -0.3701,-0.4785 2.4174,-1.7767 C 85.2788,68.592 84.7854,67.5122 84.511,66.3878 l -2.9144,0.7112 -2.9145,0.7112 c 0.4579,1.8763 1.283,3.6833 2.4747,5.3047 z M 81.5966,67.099 84.511,66.3877 c -0.0333,-0.1366 -0.0639,-0.2776 -0.0922,-0.4235 l -2.9453,0.5704 -2.9453,0.5703 c 0.0449,0.2319 0.0958,0.4674 0.1539,0.7054 z m -0.1231,-0.5644 2.9453,-0.5703 C 84.3636,65.679 84.3222,65.3929 84.2948,65.107 l -2.9863,0.286 -2.9864,0.2859 c 0.0459,0.479 0.1149,0.9549 0.2061,1.4259 z m -0.165,-1.1416 2.9863,-0.286 c -0.0412,-0.4305 -0.0514,-0.8643 -0.0307,-1.2975 l -2.9966,-0.1431 -2.9966,-0.1431 c -0.0343,0.7178 -0.0175,1.4383 0.0512,2.1556 z m -0.041,-1.7266 2.9965,0.1431 c 0.0139,-0.2902 0.0412,-0.5777 0.0821,-0.8613 l -2.9693,-0.4283 -2.9692,-0.4283 c -0.0689,0.4774 -0.114,0.9553 -0.1367,1.4317 z m 0.1093,-1.1465 2.9693,0.4282 c 0.0413,-0.2861 0.0963,-0.5704 0.1649,-0.8516 l -2.9144,-0.7114 -2.9145,-0.7113 c -0.1145,0.4691 -0.2059,0.9423 -0.2745,1.4179 z m 0.2198,-1.1348 2.9144,0.7115 c 0.0678,-0.2776 0.1504,-0.5557 0.2475,-0.8336 l -2.8319,-0.9902 -2.8318,-0.9901 c -0.1591,0.4548 -0.2974,0.9189 -0.4127,1.391 z m 0.33,-1.1123 2.832,0.9901 c 0.3835,-1.097 0.9855,-2.1346 1.81,-3.0472 l -2.2259,-2.0112 -2.226,-2.0112 c -1.3723,1.5188 -2.3804,3.2544 -3.022,5.0894 z m 2.4161,-4.0683 2.2259,2.0112 c 0.1007,-0.1114 0.2077,-0.2237 0.3212,-0.3372 l -2.1214,-2.1213 -2.1213,-2.1213 c -0.1793,0.1793 -0.3566,0.365 -0.5304,0.5573 z m 0.4257,-0.4473 2.1214,2.1213 28.7382,-28.7383 -2.121,-2.1213 -2.122,-2.1213 -28.7379,28.7383 z m 28.7386,-28.7383 2.121,-2.1213 -2.534,-2.5342 -2.121,2.1213 -2.122,2.1214 2.534,2.5341 z m -2.534,-2.5342 2.121,-2.121 c -0.08,-0.0806 -0.15,-0.1619 -0.209,-0.2423 l -2.417,1.7764 -2.418,1.7764 c 0.243,0.3299 0.511,0.6411 0.801,0.9316 z m -0.505,-0.5869 2.417,-1.7763 c -0.059,-0.0802 -0.113,-0.1665 -0.161,-0.259 l -2.656,1.3957 -2.655,1.3956 c 0.183,0.3487 0.395,0.6905 0.637,1.0204 z m -0.4,-0.6396 2.656,-1.3957 c -0.014,-0.0261 -0.029,-0.056 -0.045,-0.0903 l -2.721,1.2624 -2.722,1.2623 c 0.054,0.1161 0.113,0.2355 0.177,0.357 z m -0.11,-0.2236 2.721,-1.2623 c -0.029,-0.0625 -0.054,-0.1242 -0.075,-0.1849 l -2.832,0.9901 -2.832,0.9901 c 0.087,0.2487 0.186,0.492 0.296,0.7292 z m -0.186,-0.4571 2.832,-0.9902 c -0.024,-0.069 -0.043,-0.1327 -0.057,-0.191 l -2.914,0.7115 -2.915,0.7115 c 0.063,0.2583 0.138,0.508 0.222,0.7484 z m -0.139,-0.4697 2.914,-0.7114 c -0.055,-0.2244 -0.072,-0.4602 -0.049,-0.6958 l -2.986,-0.2862 -2.987,-0.2861 c -0.086,0.8957 -0.023,1.8061 0.193,2.6909 z m -0.121,-1.6934 2.986,0.286 c 0.005,-0.0488 0.008,-0.0796 0.011,-0.0991 l -2.969,-0.4281 -2.969,-0.428 c -0.021,0.1408 -0.035,0.271 -0.046,0.3833 z m 0.028,-0.2412 2.969,0.4282 c 0.01,-0.067 0.023,-0.1325 0.038,-0.1963 l -2.914,-0.7114 -2.915,-0.7114 c -0.062,0.2533 -0.111,0.5079 -0.147,0.7627 z m 0.093,-0.4795 2.914,0.7113 c 0.005,-0.0179 0.012,-0.0474 0.027,-0.0962 l -2.877,-0.8514 -2.877,-0.8514 c -0.031,0.1081 -0.067,0.2359 -0.102,0.3765 z m 0.064,-0.2363 2.877,0.8515 c 0.048,-0.1633 0.115,-0.317 0.198,-0.4585 l -2.583,-1.5258 -2.583,-1.5259 c -0.341,0.5785 -0.602,1.1868 -0.785,1.8072 z m 0.492,-1.1328 2.583,1.5257 c 0.084,-0.1412 0.19,-0.2803 0.322,-0.4125 l -2.121,-2.121 -2.122,-2.121 c -0.486,0.4862 -0.903,1.0246 -1.245,1.6031 z m 0.784,-1.0078 2.121,2.1213 15.832,-15.83203 -2.121,-2.12132 -2.122,-2.121322 -15.832,15.832072 z m 15.832,-15.83205 2.121,2.12155 c 0.13,-0.1304 0.269,-0.23673 0.413,-0.32156 l -1.526,-2.583194 -1.525,-2.583196 c -0.577,0.34042 -1.116,0.75663 -1.605,1.244851 z m 1.008,-0.783204 1.526,2.583254 c 0.114,-0.06774 0.236,-0.12396 0.363,-0.16832 l -0.99,-2.831926 -0.99,-2.831934 c -0.492,0.172 -0.973,0.39348 -1.434,0.66567 z m 0.899,-0.416992 0.99,2.831896 c 0.069,-0.02421 0.133,-0.04293 0.191,-0.05712 L 129.182,0.144905 128.47,-2.76952 c -0.258,0.0631 -0.508,0.13819 -0.748,0.22217 z m 0.47,-0.139649 0.711,2.914445 c 0.064,-0.01558 0.129,-0.02828 0.196,-0.03793 L 129.661,0.0521317 129.233,-2.91716 c -0.255,0.03676 -0.51,0.08583 -0.763,0.14762 z"
       fill="#ffffff"
       mask="url(#path-1-inside-1_2521_28313)"
       id="path2"
       transform="matrix(0.45890812,0,0,0.45890812,2.2953076e-7,-1.073862e-6)" />
    <path
       d="m 216.475,121.699 2.122,-2.122 z m -3.516,0 -2.122,-2.122 z m -0.561,0.56 2.122,2.122 c -1.172,1.171 -3.072,1.171 -4.243,0 z m -11.692,-11.692 2.121,-2.122 v 0.001 z m -7.565,0 -2.121,-2.121 v 0 z m -11.999,12.001 2.122,2.121 c -0.563,0.563 -1.326,0.879 -2.122,0.879 -0.795,0 -1.558,-0.316 -2.121,-0.879 z m -12.1,6.948 -2.122,-2.121 v 0 z m 0,3.517 -2.122,2.121 v 0 z m 7.765,7.765 2.122,-2.121 z m 3.518,0 -2.121,-2.121 0.001,-0.001 z m 1.036,-1.035 -2.12,-2.122 c 1.171,-1.171 3.07,-1.17 4.241,0.001 z m 11.78,11.78 -2.121,2.122 v 0 z m 7.565,0 2.121,2.122 v 0 z m 11.525,-11.524 -2.121,-2.121 c 1.172,-1.172 3.071,-1.172 4.243,0 z m 12.01,-7.038 -2.121,-2.121 c -0.201,0.2 -0.201,0.525 0,0.726 l 2.121,-2.122 2.121,-2.121 c 2.143,2.143 2.143,5.617 0,7.759 z m 0,-3.517 -2.121,2.122 -7.766,-7.766 2.121,-2.121 2.122,-2.122 7.765,7.766 z m -7.766,-7.765 -2.121,2.121 c 0.201,0.201 0.526,0.201 0.726,0 l -2.121,-2.121 -2.122,-2.122 c 2.143,-2.142 5.617,-2.142 7.76,0 z m -3.516,0 2.121,2.121 -0.56,0.561 -2.122,-2.122 -2.121,-2.121 0.56,-0.561 z m -0.561,0.56 -2.121,2.122 -11.693,-11.693 2.122,-2.121 2.121,-2.121 11.693,11.692 z m -11.692,-11.692 -2.121,2.121 c -0.918,-0.917 -2.405,-0.917 -3.322,0 l -2.122,-2.121 -2.121,-2.121 c 3.261,-3.261 8.547,-3.26 11.807,-0.001 z m -7.565,0 2.122,2.121 -11.999,12.001 -2.122,-2.121 -2.121,-2.121 11.999,-12.001 z m -11.999,12.001 -2.121,2.121 -0.817,-0.817 2.121,-2.122 2.121,-2.121 0.818,0.818 z m -0.817,-0.818 -2.121,2.122 c 0.2,0.2 0.524,0.2 0.725,0 l -2.122,-2.122 -2.121,-2.121 c 2.143,-2.142 5.618,-2.142 7.76,0 z m -3.518,0 2.122,2.122 -7.766,7.765 -2.121,-2.121 -2.122,-2.121 7.766,-7.766 z m -7.765,7.766 2.121,2.121 c 0.201,-0.2 0.201,-0.525 0,-0.725 l -2.121,2.121 -2.122,2.121 c -2.142,-2.143 -2.142,-5.616 0,-7.759 z m 0,3.517 2.121,-2.122 7.766,7.766 -2.122,2.121 -2.121,2.122 -7.766,-7.766 z m 7.765,7.765 2.122,-2.121 c -0.201,-0.2 -0.525,-0.2 -0.725,0 l 2.121,2.121 2.121,2.122 c -2.142,2.142 -5.617,2.142 -7.76,0 z m 3.518,0 -2.12,-2.122 1.036,-1.035 2.12,2.122 2.12,2.123 -1.036,1.035 z m 1.036,-1.035 2.121,-2.121 11.781,11.78 -2.122,2.121 -2.121,2.122 -11.78,-11.78 z m 11.78,11.78 2.122,-2.121 c 0.917,0.917 2.404,0.917 3.322,0 l 2.121,2.121 2.121,2.122 c -3.26,3.26 -8.546,3.26 -11.807,0 z m 7.565,0 -2.121,-2.121 11.525,-11.524 2.121,2.121 2.121,2.121 -11.525,11.525 z m 11.525,-11.524 2.122,-2.121 0.727,0.727 -2.121,2.122 -2.122,2.121 -0.727,-0.728 z m 0.728,0.728 2.121,-2.122 c -0.2,-0.2 -0.525,-0.2 -0.726,0 l 2.121,2.122 2.122,2.121 c -2.143,2.143 -5.617,2.143 -7.76,0 z m 3.516,0 -2.121,-2.122 7.766,-7.765 2.121,2.121 2.121,2.121 -7.765,7.766 z"
       fill="#ffffff"
       mask="url(#path-3-inside-2_2521_28313)"
       id="path4"
       transform="matrix(0.45890812,0,0,0.45890812,2.2953076e-7,-1.073862e-6)" />
    <path
       d="m 46.4941,122.023 -2.1213,-2.121 z m 3.5166,0 2.1214,-2.121 z m 0.5606,0.561 -2.1213,2.121 c 1.1715,1.172 3.071,1.172 4.2426,0 z m 11.6924,-11.692 -2.1212,-2.122 h -10e-5 z m 7.5644,0 2.1215,-2.122 h -2e-4 z m 11.999,12.001 -2.1214,2.121 c 0.5625,0.562 1.3256,0.879 2.1213,0.879 0.7957,0 1.5588,-0.316 2.1215,-0.879 z m 12.1006,6.948 2.1215,-2.121 -1e-4,-0.001 z m 0,3.516 2.1214,2.122 h 1e-4 z m -7.7656,7.766 -2.1213,-2.121 z m -3.5176,0 2.1214,-2.121 -0.001,-0.001 z m -1.0361,-1.035 2.1203,-2.122 c -1.1717,-1.171 -3.0704,-1.171 -4.2416,0.001 z m -11.7803,11.78 2.1213,2.122 v -0.001 z m -7.5644,0 -2.1213,2.122 h 2e-4 z m -11.5254,-11.524 2.1212,-2.122 c -1.1716,-1.171 -3.071,-1.171 -4.2425,0 z m -12.0098,-7.038 2.1213,-2.122 c 0.2005,0.201 0.2005,0.526 0,0.726 l -2.1213,-2.121 -2.1213,-2.121 c -2.1427,2.142 -2.1427,5.616 0,7.759 z m 0,-3.517 2.1213,2.121 7.7657,-7.765 -2.1214,-2.122 -2.1213,-2.121 -7.7656,7.766 z m 7.7656,-7.766 2.1214,2.122 c -0.2005,0.2 -0.5256,0.2 -0.7261,0 l 2.1213,-2.122 2.1214,-2.121 c -2.1427,-2.143 -5.6166,-2.143 -7.7593,0 z m 3.5166,0 -2.1213,2.122 0.5606,0.56 2.1213,-2.121 2.1213,-2.121 -0.5605,-0.561 z m 0.5606,0.561 2.1213,2.121 11.6924,-11.692 -2.1213,-2.121 -2.1213,-2.122 -11.6924,11.693 z m 11.6924,-11.692 2.1211,2.121 c 0.9176,-0.917 2.4049,-0.917 3.322,0 l 2.1213,-2.121 2.1213,-2.122 c -3.2605,-3.26 -8.5465,-3.26 -11.8069,0 z m 7.5644,0 -2.1215,2.121 11.9991,12.001 2.1214,-2.121 2.1215,-2.122 -11.999,-12.001 z m 11.999,12.001 2.1214,2.121 0.8174,-0.817 -2.1214,-2.122 -2.1213,-2.121 -0.8174,0.817 z m 0.8174,-0.818 2.1214,2.122 c -0.2005,0.2 -0.5246,0.2 -0.7251,0 l 2.1213,-2.122 2.1213,-2.121 c -2.1426,-2.143 -5.6175,-2.143 -7.7602,0 z m 3.5176,0 -2.1213,2.122 7.7656,7.765 2.1213,-2.121 2.1214,-2.122 -7.7657,-7.765 z m 7.7656,7.766 -2.1214,2.121 c -0.2005,-0.2 -0.2005,-0.525 0,-0.726 l 2.1214,2.121 2.1215,2.122 c 2.1423,-2.143 2.1423,-5.617 0,-7.759 z m 0,3.516 -2.1213,-2.121 -7.7656,7.766 2.1213,2.121 2.1213,2.121 7.7657,-7.765 z m -7.7656,7.766 -2.1213,-2.121 c 0.2005,-0.201 0.5246,-0.201 0.7251,0 l -2.1214,2.121 -2.1213,2.121 c 2.1427,2.143 5.6176,2.143 7.7602,0 z m -3.5176,0 2.1204,-2.122 -1.0362,-1.035 -2.1203,2.122 -2.1203,2.122 1.0361,1.035 z m -1.0361,-1.035 -2.1213,-2.121 -11.7803,11.78 2.1213,2.121 2.1213,2.121 11.7803,-11.78 z m -11.7803,11.78 -2.1212,-2.121 c -0.9171,0.917 -2.4046,0.917 -3.3221,0 l -2.1211,2.121 -2.1211,2.122 c 3.2603,3.259 8.5462,3.26 11.8068,0 z m -7.5644,0 2.1212,-2.121 -11.5254,-11.525 -2.1212,2.122 -2.1212,2.121 11.5253,11.525 z m -11.5254,-11.524 -2.1213,-2.122 -0.7276,0.728 2.1213,2.121 2.1214,2.122 0.7275,-0.728 z m -0.7276,0.727 -2.1213,-2.121 c 0.2005,-0.201 0.5256,-0.201 0.7261,0 l -2.1214,2.121 -2.1213,2.122 c 2.1427,2.142 5.6166,2.142 7.7593,0 z m -3.5166,0 2.1214,-2.121 -7.7657,-7.766 -2.1213,2.122 -2.1213,2.121 7.7656,7.766 z"
       fill="#ffffff"
       mask="url(#path-5-inside-3_2521_28313)"
       id="path6"
       transform="matrix(0.45890812,0,0,0.45890812,2.2953076e-7,-1.073862e-6)" />
    <path
       d="m 121.966,46.2271 -2.121,-2.1214 z m 0,3.5166 -2.121,2.1213 z m 0.561,0.5605 2.121,-2.1213 c 1.172,1.1716 1.172,3.071 0,4.2426 z m -11.693,11.6924 -2.121,-2.1212 v -10e-5 z m 0,7.5644 -2.121,2.1215 v -2e-4 z m 12.001,11.9991 2.121,-2.1215 c 0.563,0.5626 0.879,1.3256 0.879,2.1213 0,0.7957 -0.316,1.5588 -0.878,2.1215 z m 6.948,12.1005 -2.121,2.1215 v -1e-4 z m 3.517,0 2.121,2.1214 v 1e-4 z m 7.766,-7.7656 -2.122,-2.1213 z m 0,-3.5176 -2.122,2.1214 -10e-4,-0.001 z m -1.035,-1.0361 -2.123,2.1203 c -1.17,-1.1717 -1.17,-3.0704 0.001,-4.2416 z m 11.78,-11.7803 2.121,2.1213 v 1e-4 z m 0,-7.5644 2.121,-2.1212 v 1e-4 z m -11.525,-11.5254 -2.121,2.1212 c -1.172,-1.1716 -1.171,-3.071 0,-4.2425 z m -7.038,-12.0098 -2.121,2.1213 c 0.2,0.2005 0.526,0.2005 0.726,0 l -2.121,-2.1213 -2.122,-2.1213 c 2.143,-2.1427 5.617,-2.1427 7.76,0 z m -3.516,0 2.121,2.1213 -7.766,7.7657 -2.121,-2.1213 -2.121,-2.1214 7.765,-7.7656 z m -7.766,7.7657 2.121,2.1213 c 0.201,-0.2005 0.201,-0.5256 0,-0.7261 l -2.121,2.1214 -2.121,2.1213 c -2.143,-2.1427 -2.143,-5.6166 0,-7.7593 z m 0,3.5166 2.121,-2.1214 0.561,0.5606 -2.121,2.1213 -2.122,2.1213 -0.56,-0.5605 z m 0.561,0.5605 2.121,2.1213 -11.692,11.6924 -2.122,-2.1213 -2.121,-2.1213 11.692,-11.6924 z m -11.693,11.6924 2.122,2.1211 c -0.918,0.9176 -0.918,2.4049 0,3.322 l -2.122,2.1213 -2.121,2.1213 c -3.261,-3.2605 -3.26,-8.5465 0,-11.8069 z m 0,7.5644 2.121,-2.1215 12.001,11.9991 -2.121,2.1215 -2.121,2.1215 -12.001,-11.9991 z m 12.001,11.9991 2.122,2.1213 -0.818,0.8174 -2.121,-2.1214 -2.121,-2.1213 0.817,-0.8174 z m -0.817,0.8173 2.121,2.1214 c 0.201,-0.2005 0.201,-0.5246 0,-0.7251 l -2.121,2.1213 -2.121,2.1213 c -2.143,-2.1426 -2.143,-5.6175 0,-7.7602 z m 0,3.5176 2.121,-2.1213 7.766,7.7656 -2.122,2.1213 -2.121,2.1214 -7.765,-7.7657 z m 7.765,7.7656 2.122,-2.1214 c -0.201,-0.2005 -0.526,-0.2005 -0.726,0 l 2.121,2.1214 2.121,2.1215 c -2.142,2.1423 -5.616,2.1423 -7.759,0 z m 3.517,0 -2.121,-2.1213 7.765,-7.7656 2.122,2.1213 2.121,2.1213 -7.766,7.7657 z m 7.766,-7.7656 -2.122,-2.1213 c -0.2,0.2005 -0.2,0.5246 0,0.7251 l 2.122,-2.1214 2.121,-2.1213 c 2.143,2.1427 2.143,5.6176 0,7.7602 z m 0,-3.5176 -2.123,2.1204 -1.035,-1.0362 2.123,-2.1203 2.122,-2.1203 1.035,1.0361 z m -1.035,-1.0361 -2.122,-2.1213 11.78,-11.7803 2.122,2.1213 2.121,2.1214 -11.78,11.7802 z m 11.78,-11.7803 -2.122,-2.1212 c 0.917,-0.9171 0.918,-2.4046 0,-3.3221 l 2.122,-2.1211 2.121,-2.1211 c 3.26,3.2603 3.26,8.5462 0,11.8068 z m 0,-7.5644 -2.122,2.1212 -11.524,-11.5254 2.121,-2.1212 2.122,-2.1212 11.524,11.5254 z m -11.525,-11.5254 -2.121,-2.1213 0.728,-0.7276 2.121,2.1214 2.121,2.1213 -0.727,0.7275 z m 0.728,-0.7275 -2.121,-2.1214 c -0.201,0.2005 -0.201,0.5256 0,0.7261 l 2.121,-2.1213 2.121,-2.1214 c 2.143,2.1427 2.143,5.6166 0,7.7593 z m 0,-3.5166 -2.121,2.1213 -7.766,-7.7657 2.121,-2.1213 2.122,-2.1213 7.765,7.7656 z"
       fill="#ffffff"
       mask="url(#path-7-inside-4_2521_28313)"
       id="path8"
       transform="matrix(0.45890812,0,0,0.45890812,2.2953076e-7,-1.073862e-6)" />
    <path
       d="m 122.291,216.208 -2.122,2.121 z m 0,-3.517 -2.122,-2.121 z m 0.56,-0.56 2.122,2.121 c 1.171,-1.171 1.171,-3.071 0,-4.242 z m -11.692,-11.693 -2.122,2.122 h 10e-4 z m 0,-7.564 -2.121,-2.121 v 0 z m 12.001,-11.999 2.121,2.121 c 0.563,-0.562 0.879,-1.325 0.879,-2.121 0,-0.796 -0.316,-1.559 -0.879,-2.121 z m 6.948,-12.101 -2.121,-2.121 v 0 z m 3.517,0 2.121,-2.121 v 0 z m 7.765,7.766 -2.121,2.121 z m 0,3.518 -2.121,-2.122 -0.001,0.001 z m -1.035,1.036 -2.122,-2.121 c -1.171,1.172 -1.17,3.071 0.001,4.242 z m 11.78,11.78 2.122,-2.121 v 0 z m 0,7.564 2.122,2.122 v 0 z m -11.524,11.526 -2.121,-2.121 c -1.172,1.171 -1.172,3.071 0,4.242 z m -7.038,12.01 -2.121,-2.122 c 0.2,-0.2 0.525,-0.2 0.726,0 l -2.122,2.122 -2.121,2.121 c 2.143,2.143 5.617,2.143 7.759,0 z m -3.517,0 2.122,-2.122 -7.766,-7.765 -2.121,2.121 -2.122,2.121 7.766,7.766 z m -7.765,-7.766 2.121,-2.121 c 0.201,0.2 0.201,0.525 0,0.726 l -2.121,-2.122 -2.122,-2.121 c -2.142,2.143 -2.142,5.617 0,7.759 z m 0,-3.517 2.121,2.122 0.561,-0.561 -2.122,-2.121 -2.121,-2.121 -0.561,0.56 z m 0.56,-0.56 2.122,-2.121 -11.693,-11.693 -2.121,2.121 -2.121,2.122 11.692,11.692 z m -11.692,-11.693 2.121,-2.121 c -0.917,-0.917 -0.917,-2.405 0,-3.322 l -2.121,-2.121 -2.121,-2.121 c -3.261,3.26 -3.26,8.546 -10e-4,11.807 z m 0,-7.564 2.121,2.122 12.001,-12 -2.121,-2.121 -2.121,-2.121 -12.001,11.999 z m 12.001,-11.999 2.121,-2.121 -0.817,-0.818 -2.121,2.122 -2.122,2.121 0.818,0.817 z m -0.817,-0.817 2.121,-2.122 c 0.2,0.201 0.2,0.525 0,0.725 l -2.121,-2.121 -2.122,-2.121 c -2.142,2.142 -2.142,5.617 0,7.76 z m 0,-3.518 2.121,2.121 7.765,-7.765 -2.121,-2.122 -2.121,-2.121 -7.766,7.766 z m 7.765,-7.766 2.121,2.122 c -0.2,0.2 -0.525,0.2 -0.725,0 l 2.121,-2.122 2.121,-2.121 c -2.143,-2.142 -5.616,-2.142 -7.759,0 z m 3.517,0 -2.122,2.122 7.766,7.765 2.121,-2.121 2.122,-2.121 -7.766,-7.766 z m 7.765,7.766 -2.121,2.121 c -0.2,-0.2 -0.2,-0.524 0,-0.725 l 2.121,2.122 2.122,2.121 c 2.142,-2.143 2.142,-5.618 0,-7.76 z m 0,3.518 -2.122,-2.121 -1.035,1.036 2.122,2.121 2.123,2.12 1.035,-1.036 z m -1.035,1.036 -2.121,2.121 11.78,11.78 2.121,-2.121 2.122,-2.121 -11.78,-11.781 z m 11.78,11.78 -2.121,2.121 c 0.917,0.917 0.917,2.405 0,3.322 l 2.121,2.121 2.122,2.122 c 3.26,-3.261 3.26,-8.547 0,-11.807 z m 0,7.564 -2.121,-2.121 -11.524,11.526 2.121,2.121 2.121,2.121 11.525,-11.525 z m -11.524,11.526 -2.121,2.121 0.727,0.728 2.122,-2.122 2.121,-2.121 -0.728,-0.727 z m 0.728,0.727 -2.122,2.122 c -0.2,-0.201 -0.2,-0.526 0,-0.726 l 2.122,2.121 2.121,2.121 c 2.143,-2.142 2.143,-5.616 0,-7.759 z m 0,3.517 -2.122,-2.121 -7.765,7.765 2.121,2.122 2.121,2.121 7.766,-7.766 z"
       fill="#ffffff"
       mask="url(#path-9-inside-5_2521_28313)"
       id="path10"
       transform="matrix(0.45890812,0,0,0.45890812,2.2953076e-7,-1.073862e-6)" />
  </g>
</svg>
