<svg xmlns="http://www.w3.org/2000/svg" width="35" height="23" viewBox="0 0 35 23" fill="none">
  <path d="M9.0923 17.7254V12.1231L17.358 16.3478L25.9911 12.1231V17.7254L17.358 22.5011L9.0923 17.7254Z" fill="#F1F5FF"/>
  <path d="M7.531 10.5618C7.531 10.5618 17.358 15.7049 17.358 15.4294C17.358 15.1538 34.9916 7.25547 34.9916 7.25547C34.9916 7.25547 19.7459 1.74499 17.358 0C14.4191 2.47972 0 7.25547 0 7.25547L5.87785 9.82703C4.1145 12.3251 5.38803 18.5214 6.24522 21.3072H7.531C6.97995 19.5928 5.87785 15.4845 5.87785 12.766C5.87785 9.36783 9.0923 5.96969 12.2149 5.60232C14.713 5.30843 16.1335 6.39828 16.5315 6.97994C11.4618 4.40838 8.4188 8.29633 7.531 10.5618Z" fill="#F1F5FF"/>
</svg>